<svg width="48" height="48" xmlns="http://www.w3.org/2000/svg">

 <g>
  <title>background</title>
  <rect fill="none" id="canvas_background" height="602" width="802" y="-1" x="-1"/>
 </g>
 <g>
  <title>Layer 1</title>
  <circle id="svg_1" stroke-width="0.57266" stroke-miterlimit="10" stroke="#445e75" r="16.42266" fill="#7dbf6b" cy="17.70902" cx="17.20899"/>
  <g id="svg_2" fill="#fff">
   <path id="svg_3" opacity="0.3" d="m3.90788,20.68569c0.41919,-4.8212 1.36063,-7.71369 4.35448,-10.70754c3.23323,-3.23322 6.22765,-4.73359 11.8855,-6.02092c2.77968,-0.63221 -2.03522,-2.72814 -8.69809,-0.23536c-3.5791,1.33887 -7.21204,4.83322 -8.48677,9.92529c-1.54446,6.16522 0.75304,9.24612 0.94488,7.03853z"/>
   <path id="svg_4" stroke-width="0.57266" stroke-miterlimit="10" stroke="#34497d" d="m21.146,24.62156l-0.40659,-0.40545c-0.3705,-0.36993 -1.08003,-0.29663 -1.37323,0.14202c-0.18382,0.27545 -1.03364,1.15505 -1.56908,1.56851c0.06643,-0.2743 0.19356,-0.69349 0.43293,-1.3738l2.14746,-6.09651c0.50452,-1.44367 0.80917,-2.31525 0.80917,-3.05856c0,-1.17624 -0.867,-1.93672 -2.20759,-1.93672c-3.38612,0 -6.03638,3.05798 -7.01734,4.37166c-0.0126,0.0166 -0.02405,0.03265 -0.03436,0.04696c-0.16893,0.19184 -0.23594,0.44782 -0.18325,0.71009c0.04066,0.20272 0.15175,0.39915 0.32183,0.56923l0.30466,0.30408c0.1821,0.1821 0.41861,0.28232 0.66657,0.28232c0.18497,0 0.46213,-0.05785 0.73472,-0.33329l0.05041,-0.05898c0.35333,-0.47072 1.0136,-1.18254 1.49635,-1.62062c-0.08304,0.28175 -0.20043,0.62763 -0.33844,1.02563l-1.49292,4.35162c-1.06342,3.07459 -1.46142,4.22506 -1.46142,4.86587c0,0.83779 0.53544,1.73228 2.03809,1.73228c4.67002,0 6.9721,-3.46915 7.22464,-3.87288c0.25712,-0.43064 0.20787,-0.8607 -0.14259,-1.21346l-0.00002,0z"/>
   <path id="svg_5" stroke-width="0.57266" stroke-miterlimit="10" stroke="#34497d" d="m19.24936,6.47406c-1.5015,0 -2.81804,1.3005 -2.81804,2.78368c0,1.69106 1.13271,2.78369 2.88562,2.78369c1.72083,0 3.05512,-1.58741 3.05512,-2.95319c0.00057,-1.20545 -0.81718,-2.61418 -3.1227,-2.61418z"/>
   <path id="svg_6" stroke-width="1.2" stroke-linejoin="round" stroke-linecap="round" stroke="#000" fill-rule="evenodd" d="m45.32367,32.90523l-22.31067,-12.20924l9.58007,23.79436l3.81431,-6.17746l7.54184,8.24563l2.85628,-2.78385l-7.71051,-8.16665l6.22868,-2.70279z"/>
  </g>
 </g>
</svg>